<svg
  width="50"
  height="50"
  viewBox="0 0 50 50"
  fill="none"
  xmlns="http://www.w3.org/2000/svg"
>
  <circle cx="25" cy="25" r="25" fill="#fffff" />
  <g clip-path="url(#clip0_691_144)">
    <path
      d="M30.5244 16.0547L19.6221 16.0547C19.6856 15.4092 19.9748 14.8273 20.4121 14.3899C20.9095 13.8961 21.5937 13.5857 22.3521 13.5857L23.5866 13.5857L23.5866 9.96688C22.1828 9.38138 21.1952 7.99875 21.1952 6.37981C21.1952 4.23885 22.9305 2.49998 25.075 2.49998C27.2195 2.49998 28.9548 4.23885 28.9548 6.37981C28.9548 7.97054 27.999 9.33553 26.6305 9.93514L26.6305 13.5857L27.7944 13.5857C29.2158 13.5857 30.3868 14.6685 30.5244 16.0512L30.5244 16.0547Z"
      fill="white"
    />
    <path
      d="M7.13956 19.4442C5.04798 21.5358 3.75 24.4316 3.75 27.6236C3.75 34.0183 8.93134 39.1961 15.3225 39.1961L35.0073 39.1961C38.1958 39.1961 41.0916 37.9017 43.1832 35.8101C45.2783 33.715 46.5727 30.8227 46.5727 27.6236C46.5727 21.2325 41.3914 16.0547 35.0038 16.0547L15.3189 16.0547C12.1269 16.0547 9.23114 17.3491 7.13956 19.4407L7.13956 19.4442ZM30.4185 34.9142C29.9177 36.2898 27.6251 37.3338 24.8774 37.3338C22.1298 37.3338 19.8301 36.2898 19.3328 34.9142L30.4221 34.9142L30.4185 34.9142ZM36.0408 18.9399C39.9911 18.9399 43.1902 22.1425 43.1902 26.0893C43.1902 28.061 42.3931 29.8528 41.0986 31.1472C39.8042 32.4417 38.0124 33.2423 36.0408 33.2423L14.289 33.2423C10.3387 33.2423 7.13603 30.0362 7.13603 26.0893C7.13603 24.1177 7.93669 22.3259 9.23114 21.0315C10.5256 19.737 12.3138 18.9399 14.289 18.9399L36.0408 18.9399ZM9.24878 26.0047C9.24878 28.9569 11.6437 31.3518 14.5959 31.3518C17.5481 31.3518 19.943 28.9569 19.943 26.0047C19.943 23.0525 17.5481 20.6611 14.5959 20.6611C11.6437 20.6611 9.24878 23.0525 9.24878 26.0047ZM30.6549 26.0047C30.6549 28.9569 33.0498 31.3518 36.002 31.3518C38.9542 31.3518 41.3491 28.9569 41.3491 26.0047C41.3491 23.0525 38.9542 20.6611 36.002 20.6611C33.0498 20.6611 30.6549 23.0525 30.6549 26.0047Z"
      fill="white"
    />
    <path
      d="M36.0019 20.6611C38.9541 20.6611 41.349 23.0525 41.349 26.0047C41.349 28.9569 38.9541 31.3518 36.0019 31.3518C33.0497 31.3518 30.6548 28.9569 30.6548 26.0047C30.6548 23.0525 33.0497 20.6611 36.0019 20.6611Z"
      fill="#ffffff"
    />
    <path
      d="M14.5956 31.3518C11.6434 31.3518 9.24854 28.9569 9.24853 26.0047C9.24853 23.0525 11.6434 20.6611 14.5956 20.6611C17.5478 20.6611 19.9428 23.0525 19.9428 26.0047C19.9428 28.9569 17.5478 31.3518 14.5956 31.3518Z"
      fill="#ffffff"
    />
  </g>
</svg>
